<svg width="41" height="41" viewBox="0 0 41 41" fill="none" xmlns="http://www.w3.org/2000/svg">
<path d="M20.5339 35.072C16.5534 35.072 12.573 34.4399 8.79761 33.1758C7.36261 32.6804 6.26928 31.6724 5.79095 30.357C5.29553 29.0416 5.46636 27.5895 6.2522 26.2912L8.21678 23.0283C8.62678 22.3449 9.00261 20.9783 9.00261 20.1754V15.2383C9.00261 8.88328 14.1789 3.70703 20.5339 3.70703C26.8889 3.70703 32.0651 8.88328 32.0651 15.2383V20.1754C32.0651 20.9612 32.4409 22.3449 32.8509 23.0454L34.7984 26.2912C35.533 27.5212 35.6697 29.0074 35.1743 30.357C34.6789 31.7066 33.6026 32.7316 32.253 33.1758C28.4947 34.4399 24.5143 35.072 20.5339 35.072ZM20.5339 6.26953C15.5968 6.26953 11.5651 10.2841 11.5651 15.2383V20.1754C11.5651 21.4224 11.0526 23.2674 10.4205 24.3437L8.45594 27.6066C8.08011 28.2387 7.97761 28.9049 8.1997 29.4687C8.4047 30.0495 8.9172 30.4937 9.61761 30.7329C16.7584 33.1245 24.3264 33.1245 31.4672 30.7329C32.0822 30.5279 32.5605 30.0666 32.7826 29.4516C33.0047 28.8366 32.9534 28.1704 32.6118 27.6066L30.6472 24.3437C29.998 23.2333 29.5026 21.4054 29.5026 20.1583V15.2383C29.5026 10.2841 25.488 6.26953 20.5339 6.26953Z" fill="white"/>
<path d="M23.7119 6.73087C23.5923 6.73087 23.4727 6.71379 23.3531 6.67962C22.8577 6.54295 22.3794 6.44045 21.9181 6.37212C20.466 6.1842 19.0652 6.2867 17.7498 6.67962C17.2715 6.83337 16.759 6.67962 16.4344 6.32087C16.1098 5.96212 16.0073 5.44962 16.1952 4.98837C16.8956 3.19462 18.604 2.01587 20.5515 2.01587C22.499 2.01587 24.2073 3.17754 24.9077 4.98837C25.0785 5.44962 24.9931 5.96212 24.6685 6.32087C24.4123 6.5942 24.0535 6.73087 23.7119 6.73087Z" fill="white"/>
<path d="M20.5342 38.967C18.8429 38.967 17.2029 38.2837 16.0071 37.0879C14.8113 35.892 14.1279 34.252 14.1279 32.5608H16.6904C16.6904 33.5687 17.1004 34.5595 17.8179 35.277C18.5354 35.9945 19.5263 36.4045 20.5342 36.4045C22.6525 36.4045 24.3779 34.6791 24.3779 32.5608H26.9404C26.9404 36.097 24.0704 38.967 20.5342 38.967Z" fill="white"/>
</svg>
