<svg width="1440" height="454" viewBox="0 0 1440 454" fill="none" xmlns="http://www.w3.org/2000/svg">
<g clip-path="url(#clip0_190_2025)">
<rect width="1440" height="454" fill="#1A73E8"/>
<path d="M1115 220C1288.61 163.465 1425.33 -17.8394 1557 -79.5L-62 -16.9273V413C-34.6498 401.167 -70.17 419.194 43.5 364.5C185.587 296.132 345.411 220 490.5 220C635.589 220 941.393 276.535 1115 220Z" fill="white"/>
<path d="M1557 -79.5C1570.34 -61.5316 1688.67 -141.161 1557 -79.5ZM1557 -79.5C1425.33 -17.8394 1288.61 163.465 1115 220C941.393 276.535 635.589 220 490.5 220C345.411 220 185.587 296.132 43.5 364.5C-70.17 419.194 -34.6498 401.167 -62 413V-16.9273L1557 -79.5Z" stroke="white"/>
</g>
<defs>
<clipPath id="clip0_190_2025">
<rect width="1440" height="454" fill="white"/>
</clipPath>
</defs>
</svg>
