<svg width="1440" height="701" viewBox="0 0 1440 701" fill="none" xmlns="http://www.w3.org/2000/svg">
<g clip-path="url(#clip0_161_2009)">
<rect width="1440" height="701" fill="#F8F9FF"/>
<g clip-path="url(#clip1_161_2009)">
<path d="M254.247 570.05C258.926 569.54 261.147 568.131 259.209 566.902C257.271 565.672 251.908 565.089 247.229 565.598C242.551 566.107 240.329 567.516 242.267 568.746C244.205 569.975 249.569 570.559 254.247 570.05Z" fill="#235EAC"/>
<path opacity="0.2" d="M267.896 565.722C267.614 565.58 266.619 565.482 264.935 565.432C264.012 565.405 262.311 565.38 261.269 565.522C256.513 566.172 252.637 567.193 249.353 568.139L247.529 567.28C247.402 567.22 247.103 567.079 244.481 567.022C243.557 567.003 241.895 566.986 241.127 567.099C240.579 567.179 240.394 567.337 240.687 567.474L245.254 569.623C245.451 569.717 245.888 569.81 247.725 569.865C247.98 569.873 248.319 569.881 248.7 569.887C249.888 569.906 251.458 569.899 251.978 569.748C252.539 569.585 253.11 569.417 253.662 569.254C257.759 568.046 261.995 566.798 267.444 566.053C268.015 565.976 268.105 565.828 267.896 565.722Z" fill="black"/>
<path d="M266.928 565.39C266.613 565.252 265.597 565.17 263.905 565.147C262.979 565.134 261.274 565.137 260.267 565.295C255.67 566.02 252.037 567.1 248.977 568.097L246.957 567.268C246.816 567.21 246.484 567.075 243.854 567.06C242.928 567.055 241.264 567.065 240.523 567.189C239.995 567.279 239.847 567.439 240.17 567.572L245.223 569.645C245.443 569.734 245.9 569.821 247.745 569.846C248.002 569.85 248.343 569.853 248.724 569.853C249.913 569.853 251.48 569.821 251.963 569.661C252.486 569.49 253.016 569.313 253.529 569.141C257.341 567.871 261.281 566.557 266.549 565.727C267.104 565.64 267.161 565.491 266.928 565.39Z" fill="white"/>
<path d="M260.665 565.468C255.956 566.211 252.325 567.317 248.906 568.443C248.039 568.088 247.173 567.733 246.308 567.377C245.924 567.22 240.179 567.199 240.819 567.462C242.503 568.153 244.189 568.844 245.873 569.535C246.238 569.685 250.891 569.69 251.361 569.535C255.737 568.096 260.036 566.518 266.153 565.554C267.156 565.396 262.24 565.221 260.665 565.468Z" fill="#235EAC"/>
</g>
<rect x="-15" width="1483" height="701" fill="#235EAC"/>
<path d="M997 419.5C1184 260 1388.93 -80.5301 1566 -3.50006L1431 793L-49.835 826.876C-42.1574 796.461 -183.507 681.393 -160.001 649C-136.494 616.608 99.0624 482.949 342.5 451.5C551.501 424.5 817.841 572.312 997 419.5Z" fill="white" stroke="white"/>
</g>
<defs>
<clipPath id="clip0_161_2009">
<rect width="1440" height="701" fill="white"/>
</clipPath>
<clipPath id="clip1_161_2009">
<rect width="28" height="5.09078" fill="white" transform="translate(240 565.142)"/>
</clipPath>
</defs>
</svg>
