<svg width="40" height="42" viewBox="0 0 40 42" fill="none" xmlns="http://www.w3.org/2000/svg">
<path d="M0 4.92923V32.764V37.843C0 40.1161 1.7908 41.9573 4 41.9573H12H28L40 29.6146V4.92923H0Z" fill="#F1C40F"/>
<path d="M40 29.6146L28 41.9573V33.7288C28 31.466 29.79 29.6146 32 29.6146H40Z" fill="#F39C12"/>
<path d="M4 0.815002C1.7908 0.815002 0 2.65694 0 4.92923V6.98634V9.04345H40V6.98634V4.92923C40 2.65694 38.21 0.815002 36 0.815002H28H12H4Z" fill="#F1C40F"/>
<path d="M6 9.04344H34V13.1577H6V9.04344Z" fill="#F39C12"/>
<path d="M6 17.2719H34V21.3861H6V17.2719Z" fill="#F39C12"/>
<path d="M6 25.5004H24V29.6146H6V25.5004Z" fill="#F39C12"/>
</svg>
