<svg width="41" height="41" viewBox="0 0 41 41" fill="none" xmlns="http://www.w3.org/2000/svg">
<path d="M20.534 35.072C16.5536 35.072 12.5732 34.4399 8.79773 33.1758C7.36273 32.6804 6.2694 31.6724 5.79107 30.357C5.29565 29.0416 5.46648 27.5895 6.25232 26.2912L8.2169 23.0283C8.6269 22.3449 9.00273 20.9783 9.00273 20.1754V15.2383C9.00273 8.88328 14.179 3.70703 20.534 3.70703C26.889 3.70703 32.0652 8.88328 32.0652 15.2383V20.1754C32.0652 20.9612 32.4411 22.3449 32.8511 23.0454L34.7986 26.2912C35.5331 27.5212 35.6698 29.0074 35.1744 30.357C34.679 31.7066 33.6027 32.7316 32.2531 33.1758C28.4948 34.4399 24.5144 35.072 20.534 35.072ZM20.534 6.26953C15.5969 6.26953 11.5652 10.2841 11.5652 15.2383V20.1754C11.5652 21.4224 11.0527 23.2674 10.4207 24.3437L8.45607 27.6066C8.08023 28.2387 7.97773 28.9049 8.19982 29.4687C8.40482 30.0495 8.91732 30.4937 9.61773 30.7329C16.7586 33.1245 24.3265 33.1245 31.4673 30.7329C32.0823 30.5279 32.5606 30.0666 32.7827 29.4516C33.0048 28.8366 32.9536 28.1704 32.6119 27.6066L30.6473 24.3437C29.9981 23.2333 29.5027 21.4054 29.5027 20.1583V15.2383C29.5027 10.2841 25.4882 6.26953 20.534 6.26953Z" fill="white"/>
<path d="M23.7119 6.73081C23.5923 6.73081 23.4727 6.71373 23.3531 6.67956C22.8577 6.54289 22.3794 6.44039 21.9181 6.37206C20.466 6.18414 19.0652 6.28664 17.7498 6.67956C17.2715 6.83331 16.759 6.67956 16.4344 6.32081C16.1098 5.96206 16.0073 5.44956 16.1952 4.98831C16.8956 3.19456 18.604 2.01581 20.5515 2.01581C22.499 2.01581 24.2073 3.17748 24.9077 4.98831C25.0785 5.44956 24.9931 5.96206 24.6685 6.32081C24.4123 6.59414 24.0535 6.73081 23.7119 6.73081Z" fill="white"/>
<path d="M20.5342 38.9671C18.8429 38.9671 17.2029 38.2838 16.0071 37.0879C14.8113 35.8921 14.1279 34.2521 14.1279 32.5609H16.6904C16.6904 33.5688 17.1004 34.5596 17.8179 35.2771C18.5354 35.9946 19.5263 36.4046 20.5342 36.4046C22.6525 36.4046 24.3779 34.6792 24.3779 32.5609H26.9404C26.9404 36.0971 24.0704 38.9671 20.5342 38.9671Z" fill="white"/>
</svg>
