<svg width="41" height="41" viewBox="0 0 41 41" fill="none" xmlns="http://www.w3.org/2000/svg">
<path d="M20.5339 35.0721C16.5535 35.0721 12.5731 34.44 8.79769 33.1758C7.36269 32.6804 6.26935 31.6725 5.79102 30.3571C5.2956 29.0416 5.46644 27.5896 6.25227 26.2912L8.21685 23.0283C8.62685 22.345 9.00269 20.9783 9.00269 20.1754V15.2383C9.00269 8.8833 14.1789 3.70705 20.5339 3.70705C26.8889 3.70705 32.0652 8.8833 32.0652 15.2383V20.1754C32.0652 20.9612 32.441 22.345 32.851 23.0454L34.7985 26.2912C35.5331 27.5212 35.6698 29.0075 35.1744 30.3571C34.6789 31.7066 33.6027 32.7316 32.2531 33.1758C28.4948 34.44 24.5144 35.0721 20.5339 35.0721ZM20.5339 6.26955C15.5969 6.26955 11.5652 10.2841 11.5652 15.2383V20.1754C11.5652 21.4225 11.0527 23.2675 10.4206 24.3437L8.45602 27.6066C8.08019 28.2387 7.97769 28.905 8.19977 29.4687C8.40477 30.0496 8.91727 30.4937 9.61769 30.7329C16.7585 33.1246 24.3264 33.1246 31.4673 30.7329C32.0823 30.5279 32.5606 30.0666 32.7827 29.4516C33.0048 28.8366 32.9535 28.1704 32.6119 27.6066L30.6473 24.3437C29.9981 23.2333 29.5027 21.4054 29.5027 20.1583V15.2383C29.5027 10.2841 25.4881 6.26955 20.5339 6.26955Z" fill="#1A73E8"/>
<path d="M23.7119 6.73082C23.5923 6.73082 23.4727 6.71374 23.3531 6.67957C22.8577 6.54291 22.3794 6.44041 21.9181 6.37207C20.466 6.18416 19.0652 6.28666 17.7498 6.67957C17.2715 6.83332 16.7589 6.67957 16.4344 6.32082C16.1098 5.96207 16.0073 5.44957 16.1952 4.98832C16.8956 3.19457 18.6039 2.01582 20.5514 2.01582C22.499 2.01582 24.2073 3.17749 24.9077 4.98832C25.0785 5.44957 24.9931 5.96207 24.6685 6.32082C24.4123 6.59416 24.0535 6.73082 23.7119 6.73082Z" fill="#1A73E8"/>
<path d="M20.5342 38.9671C18.8429 38.9671 17.2029 38.2837 16.0071 37.0879C14.8113 35.8921 14.1279 34.2521 14.1279 32.5608H16.6904C16.6904 33.5687 17.1004 34.5596 17.8179 35.2771C18.5354 35.9946 19.5263 36.4046 20.5342 36.4046C22.6525 36.4046 24.3779 34.6792 24.3779 32.5608H26.9404C26.9404 36.0971 24.0704 38.9671 20.5342 38.9671Z" fill="#1A73E8"/>
</svg>
