<svg width="60" height="57" viewBox="0 0 60 57" fill="none" xmlns="http://www.w3.org/2000/svg">
<g filter="url(#filter0_d_347_7539)">
<path d="M39.5179 0C36.2244 0 33.383 2.13859 31.6394 5.37704C34.5454 8.67658 36.289 13.1982 36.289 18.3919C36.289 20.1639 36.0952 21.7526 35.7078 23.3412C36.9347 24.0134 38.1617 24.5022 39.5179 24.5022C44.8778 24.5022 49.2045 19.0029 49.2045 12.2816C49.2045 5.56035 44.8778 0.0611027 39.5179 0.0611027V0ZM20.1445 6.11027C14.7845 6.11027 10.4578 11.6095 10.4578 18.3308C10.4578 25.0521 14.7845 30.5513 20.1445 30.5513C25.5044 30.5513 29.8312 25.0521 29.8312 18.3308C29.8312 11.6095 25.5044 6.11027 20.1445 6.11027ZM50.819 25.4187C48.0421 28.535 44.232 30.4291 39.9053 30.5513C41.6489 32.8733 42.7468 35.684 42.7468 38.7391V42.7719H55.6623V32.6288C55.6623 29.4515 53.6604 26.7019 50.819 25.3576V25.4187ZM8.84334 31.529C6.00192 32.8733 4 35.6229 4 38.8002V48.9433H36.289V38.8002C36.289 35.6229 34.287 32.8733 31.4456 31.529C28.5396 34.7674 24.6004 36.6616 20.1445 36.6616C15.6886 36.6616 11.7494 34.7063 8.84334 31.529Z" fill="#0B4FAA"/>
</g>
<defs>
<filter id="filter0_d_347_7539" x="0" y="0" width="59.6624" height="56.9433" filterUnits="userSpaceOnUse" color-interpolation-filters="sRGB">
<feFlood flood-opacity="0" result="BackgroundImageFix"/>
<feColorMatrix in="SourceAlpha" type="matrix" values="0 0 0 0 0 0 0 0 0 0 0 0 0 0 0 0 0 0 127 0" result="hardAlpha"/>
<feOffset dy="4"/>
<feGaussianBlur stdDeviation="2"/>
<feComposite in2="hardAlpha" operator="out"/>
<feColorMatrix type="matrix" values="0 0 0 0 0 0 0 0 0 0 0 0 0 0 0 0 0 0 0.25 0"/>
<feBlend mode="normal" in2="BackgroundImageFix" result="effect1_dropShadow_347_7539"/>
<feBlend mode="normal" in="SourceGraphic" in2="effect1_dropShadow_347_7539" result="shape"/>
</filter>
</defs>
</svg>
